<svg width="37" height="36" viewBox="0 0 37 36" fill="none" xmlns="http://www.w3.org/2000/svg">
<path fill-rule="evenodd" clip-rule="evenodd" d="M15 1C7.26801 1 1 7.26801 1 15C1 22.732 7.26801 29 15 29H16C16.5523 29 17 29.4477 17 30V33.7546C17 34.6204 18.0254 35.0771 18.669 34.4979L24.9895 28.8094C25.1152 28.6963 25.2681 28.6176 25.432 28.5763C31.5048 27.0459 36 21.5479 36 15C36 7.26801 29.732 1 22 1H15Z" fill="#FFB186"/>
<path d="M24.9895 28.8094L24.655 28.4378L24.9895 28.8094ZM25.432 28.5763L25.5542 29.0611L25.432 28.5763ZM18.669 34.4979L18.3345 34.1263L18.669 34.4979ZM1.5 15C1.5 7.54416 7.54416 1.5 15 1.5V0.5C6.99187 0.5 0.5 6.99187 0.5 15H1.5ZM15 28.5C7.54416 28.5 1.5 22.4558 1.5 15H0.5C0.5 23.0081 6.99187 29.5 15 29.5V28.5ZM16 28.5H15V29.5H16V28.5ZM17.5 33.7546V30H16.5V33.7546H17.5ZM24.655 28.4378L18.3345 34.1263L19.0034 34.8696L25.324 29.1811L24.655 28.4378ZM35.5 15C35.5 21.3134 31.1658 26.6157 25.3098 28.0914L25.5542 29.0611C31.8438 27.4761 36.5 21.7824 36.5 15H35.5ZM22 1.5C29.4558 1.5 35.5 7.54416 35.5 15H36.5C36.5 6.99187 30.0081 0.5 22 0.5V1.5ZM15 1.5H22V0.5H15V1.5ZM25.324 29.1811C25.3855 29.1257 25.4643 29.0838 25.5542 29.0611L25.3098 28.0914C25.0718 28.1514 24.8448 28.267 24.655 28.4378L25.324 29.1811ZM16.5 33.7546C16.5 35.0533 18.0382 35.7383 19.0034 34.8696L18.3345 34.1263C18.0127 34.4159 17.5 34.1875 17.5 33.7546H16.5ZM16 29.5C16.2761 29.5 16.5 29.7239 16.5 30H17.5C17.5 29.1716 16.8284 28.5 16 28.5V29.5Z" fill="#FF782D"/>
<path d="M15.4758 8.00487L16.2123 9.76118C16.4755 10.3889 16.3864 11.109 15.978 11.6536C15.3971 12.4281 15.4845 13.5142 16.1819 14.1857L18.7531 16.6617C19.4492 17.332 20.5459 17.3478 21.261 16.6977C21.743 16.2595 22.4213 16.1096 23.0431 16.3039L24.1626 16.6538C26.2181 17.2961 27.2709 19.5716 26.4298 21.554C25.8115 23.0115 24.3228 23.9028 22.7461 23.7594L22.6834 23.7537C20.4674 23.5523 18.4006 22.5506 16.8695 20.936L10.6014 14.326C9.58058 13.2495 9.05613 11.7954 9.15481 10.3151L9.23949 9.04494C9.32108 7.82106 10.0852 6.74753 11.2148 6.2696C12.8706 5.56907 14.7805 6.34687 15.4758 8.00487Z" fill="white"/>
</svg>
