<svg width="364" height="425" viewBox="0 0 364 425" fill="none" xmlns="http://www.w3.org/2000/svg">
<path d="M2.688 33V12.392H5.964V33H2.688ZM15.5286 33V15.136H9.48063V12.392H24.8526V15.136H18.8046V33H15.5286ZM32.0469 33L38.8509 12.392H42.6309L49.4349 33H45.9909L42.6869 21.828C41.9869 19.588 41.3709 17.264 40.7269 14.968H40.6149C39.9989 17.292 39.3829 19.588 38.6829 21.828L35.3509 33H32.0469ZM35.8829 27.148V24.6H45.5149V27.148H35.8829ZM58.0608 33.392C55.2048 33.392 52.6008 32.272 50.7248 30.368L52.6288 28.1C54.0848 29.584 56.1288 30.536 58.1168 30.536C60.5808 30.536 61.9808 29.388 61.9808 27.624C61.9808 25.748 60.5808 25.16 58.6768 24.348L55.8208 23.088C53.8328 22.276 51.6488 20.708 51.6488 17.712C51.6488 14.464 54.4768 12.028 58.3968 12.028C60.8328 12.028 63.1008 13.036 64.6408 14.632L62.9608 16.676C61.6728 15.556 60.2168 14.856 58.3968 14.856C56.2968 14.856 54.9528 15.864 54.9528 17.488C54.9528 19.252 56.6048 19.924 58.2848 20.624L61.1128 21.8C63.5488 22.836 65.3128 24.348 65.3128 27.372C65.3128 30.676 62.5688 33.392 58.0608 33.392ZM74.5218 33.392C71.6658 33.392 69.0618 32.272 67.1858 30.368L69.0898 28.1C70.5458 29.584 72.5898 30.536 74.5778 30.536C77.0418 30.536 78.4418 29.388 78.4418 27.624C78.4418 25.748 77.0418 25.16 75.1378 24.348L72.2818 23.088C70.2938 22.276 68.1098 20.708 68.1098 17.712C68.1098 14.464 70.9378 12.028 74.8578 12.028C77.2938 12.028 79.5618 13.036 81.1018 14.632L79.4218 16.676C78.1338 15.556 76.6778 14.856 74.8578 14.856C72.7578 14.856 71.4138 15.864 71.4138 17.488C71.4138 19.252 73.0658 19.924 74.7458 20.624L77.5738 21.8C80.0098 22.836 81.7738 24.348 81.7738 27.372C81.7738 30.676 79.0298 33.392 74.5218 33.392ZM85.6489 33V12.392H97.8569V15.136H88.9249V20.848H96.4569V23.62H88.9249V30.256H98.1649V33H85.6489ZM106.638 33V15.136H100.59V12.392H115.962V15.136H109.914V33H106.638ZM2.688 74V53.392H6.44L10.192 63.836C10.696 65.18 11.116 66.58 11.592 67.98H11.704C12.208 66.58 12.6 65.18 13.048 63.836L16.772 53.392H20.524V74H17.528V63.836C17.528 61.96 17.78 59.328 17.948 57.452H17.836L16.156 62.212L12.572 72.04H10.556L6.972 62.212L5.32 57.452H5.208C5.376 59.328 5.628 61.96 5.628 63.836V74H2.688ZM23.2422 74L30.0462 53.392H33.8262L40.6302 74H37.1862L33.8822 62.828C33.1822 60.588 32.5662 58.264 31.9222 55.968H31.8102C31.1942 58.292 30.5782 60.588 29.8782 62.828L26.5462 74H23.2422ZM27.0782 68.148V65.6H36.7102V68.148H27.0782ZM43.3482 74V53.392H46.6802L53.5402 65.516L55.6962 69.856H55.8362C55.6402 67.756 55.3882 65.236 55.3882 63.024V53.392H58.4962V74H55.1362L48.3322 61.876L46.1762 57.536H46.0362C46.1762 59.692 46.4562 62.044 46.4562 64.312V74H43.3482ZM61.2227 74L68.0267 53.392H71.8067L78.6107 74H75.1667L71.8627 62.828C71.1627 60.588 70.5467 58.264 69.9027 55.968H69.7907C69.1747 58.292 68.5587 60.588 67.8587 62.828L64.5267 74H61.2227ZM65.0587 68.148V65.6H74.6907V68.148H65.0587ZM89.3191 74.392C83.8311 74.392 79.7711 70.528 79.7711 63.752C79.7711 57.032 83.9431 53.028 89.4031 53.028C92.3151 53.028 94.2751 54.316 95.5351 55.604L93.7711 57.704C92.7351 56.668 91.4751 55.856 89.5151 55.856C85.6511 55.856 83.1311 58.824 83.1311 63.64C83.1311 68.54 85.3991 71.536 89.6551 71.536C90.9151 71.536 92.1751 71.172 92.8751 70.528V65.712H88.8151V63.024H95.8431V71.956C94.4711 73.356 92.1191 74.392 89.3191 74.392ZM100.524 74V53.392H112.732V56.136H103.8V61.848H111.332V64.62H103.8V71.256H113.04V74H100.524ZM117.313 74V53.392H121.065L124.817 63.836C125.321 65.18 125.741 66.58 126.217 67.98H126.329C126.833 66.58 127.225 65.18 127.673 63.836L131.397 53.392H135.149V74H132.153V63.836C132.153 61.96 132.405 59.328 132.573 57.452H132.461L130.781 62.212L127.197 72.04H125.181L121.597 62.212L119.945 57.452H119.833C120.001 59.328 120.253 61.96 120.253 63.836V74H117.313ZM140.555 74V53.392H152.763V56.136H143.831V61.848H151.363V64.62H143.831V71.256H153.071V74H140.555ZM157.344 74V53.392H160.676L167.536 65.516L169.692 69.856H169.832C169.636 67.756 169.384 65.236 169.384 63.024V53.392H172.492V74H169.132L162.328 61.876L160.172 57.536H160.032C160.172 59.692 160.452 62.044 160.452 64.312V74H157.344ZM182.107 74V56.136H176.059V53.392H191.431V56.136H185.383V74H182.107ZM8.596 115.392C5.74 115.392 3.136 114.272 1.26 112.368L3.164 110.1C4.62 111.584 6.664 112.536 8.652 112.536C11.116 112.536 12.516 111.388 12.516 109.624C12.516 107.748 11.116 107.16 9.212 106.348L6.356 105.088C4.368 104.276 2.184 102.708 2.184 99.712C2.184 96.464 5.012 94.028 8.932 94.028C11.368 94.028 13.636 95.036 15.176 96.632L13.496 98.676C12.208 97.556 10.752 96.856 8.932 96.856C6.832 96.856 5.488 97.864 5.488 99.488C5.488 101.252 7.14 101.924 8.82 102.624L11.648 103.8C14.084 104.836 15.848 106.348 15.848 109.372C15.848 112.676 13.104 115.392 8.596 115.392ZM22.5649 115V107.216L16.3489 94.392H19.8209L22.2289 99.88C22.8729 101.392 23.4609 102.848 24.1329 104.416H24.2449C24.9449 102.848 25.5889 101.392 26.2329 99.88L28.6129 94.392H32.0009L25.8129 107.216V115H22.5649ZM39.9046 115.392C37.0486 115.392 34.4446 114.272 32.5686 112.368L34.4726 110.1C35.9286 111.584 37.9726 112.536 39.9606 112.536C42.4246 112.536 43.8246 111.388 43.8246 109.624C43.8246 107.748 42.4246 107.16 40.5206 106.348L37.6646 105.088C35.6766 104.276 33.4926 102.708 33.4926 99.712C33.4926 96.464 36.3206 94.028 40.2406 94.028C42.6766 94.028 44.9446 95.036 46.4846 96.632L44.8046 98.676C43.5166 97.556 42.0606 96.856 40.2406 96.856C38.1406 96.856 36.7966 97.864 36.7966 99.488C36.7966 101.252 38.4486 101.924 40.1286 102.624L42.9566 103.8C45.3926 104.836 47.1566 106.348 47.1566 109.372C47.1566 112.676 44.4126 115.392 39.9046 115.392ZM54.4661 115V97.136H48.4181V94.392H63.7901V97.136H57.7421V115H54.4661ZM67.3833 115V94.392H79.5913V97.136H70.6593V102.848H78.1913V105.62H70.6593V112.256H79.8993V115H67.3833ZM84.1724 115V94.392H87.9244L91.6764 104.836C92.1804 106.18 92.6004 107.58 93.0764 108.98H93.1884C93.6924 107.58 94.0844 106.18 94.5324 104.836L98.2564 94.392H102.008V115H99.0124V104.836C99.0124 102.96 99.2644 100.328 99.4324 98.452H99.3204L97.6404 103.212L94.0564 113.04H92.0404L88.4564 103.212L86.8044 98.452H86.6924C86.8604 100.328 87.1124 102.96 87.1124 104.836V115H84.1724Z" fill="white" fill-opacity="0.9"/>
<rect x="220.761" y="271.511" width="45.7796" height="150.812" rx="5" fill="#D7D7D7"/>
<rect x="123.491" y="226" width="240.318" height="150.812" rx="5" fill="white"/>
<rect x="188.903" y="408.938" width="109.494" height="16.0628" rx="5" fill="#414141"/>
<rect x="139.431" y="247.417" width="102.747" height="113.455" rx="6" fill="#D7D7D7"/>
<rect x="259.133" y="271.511" width="74.9596" height="5.35426" rx="2.67713" fill="#6B6B6B"/>
<rect x="259.133" y="285.789" width="74.9596" height="5.35426" rx="2.67713" fill="#6B6B6B"/>
<rect x="259.133" y="300.067" width="51.8951" height="5.35426" rx="2.67713" fill="#6B6B6B"/>
<circle cx="339.5" cy="247.5" r="7.5" fill="#598ADE"/>
<rect x="159" y="304" width="18" height="57" fill="white"/>
<rect x="183" y="317" width="18" height="44" fill="#598ADE"/>
<rect x="207" y="286" width="18" height="75" fill="#5FC689"/>
<rect x="83" y="171" width="68" height="46" rx="5" fill="#FF9255"/>
<g opacity="0.9">
<path d="M111.22 185.792L112.922 184.604C113.27 184.361 113.531 184.014 113.669 183.613L114.284 181.819C114.561 181.011 115.321 180.468 116.176 180.468H117.686C118.541 180.468 119.301 181.011 119.578 181.819L120.168 183.538C120.321 183.985 120.627 184.363 121.032 184.606L123.151 185.873C123.616 186.152 124.174 186.229 124.698 186.088L126.046 185.725C126.931 185.486 127.865 185.879 128.312 186.679L129.25 188.356C129.66 189.089 129.569 189.999 129.022 190.636L128.034 191.786C127.722 192.148 127.551 192.611 127.551 193.089V195.389C127.551 195.794 127.674 196.189 127.903 196.522L129.151 198.338C129.622 199.023 129.621 199.927 129.148 200.61L127.842 202.497C127.368 203.181 126.521 203.5 125.713 203.299L124.727 203.053C124.186 202.918 123.614 203.015 123.147 203.321L121.065 204.685C120.641 204.963 120.338 205.392 120.218 205.886L119.982 206.857C119.764 207.754 118.961 208.385 118.039 208.385H116.108C115.287 208.385 114.549 207.883 114.248 207.12L113.661 205.635C113.528 205.297 113.305 205.002 113.016 204.781L111.171 203.37C110.73 203.033 110.169 202.894 109.622 202.987L107.246 203.39C106.392 203.535 105.543 203.115 105.14 202.348L104.24 200.635C103.87 199.931 103.953 199.074 104.451 198.454L105.971 196.559C106.255 196.204 106.41 195.763 106.41 195.308V193.178C106.41 192.646 106.199 192.137 105.823 191.762L104.782 190.724C104.112 190.055 104.002 189.008 104.52 188.215L105.637 186.503C106.101 185.794 106.961 185.453 107.785 185.653L109.602 186.096C110.16 186.231 110.749 186.121 111.22 185.792Z" fill="white"/>
<circle cx="116.782" cy="194.542" r="5.76792" fill="#FF9255"/>
</g>
<path fill-rule="evenodd" clip-rule="evenodd" d="M14.9945 326.115C12.7854 326.118 10.997 327.912 11 330.121L11.0453 363.008C11.0484 365.217 12.8417 367.005 15.0508 367.002L93.15 366.887C95.3591 366.884 97.1475 365.091 97.1445 362.881L97.1363 356.953L105.865 356.941C107.622 356.938 108.523 354.833 107.311 353.561L97.1169 342.86L97.0991 329.994C97.0961 327.785 95.3028 325.997 93.0936 326L14.9945 326.115Z" fill="#FC6410"/>
<circle cx="40.0321" cy="346.032" r="2.0306" fill="white" fill-opacity="0.4"/>
<circle cx="54.9232" cy="346.032" r="2.0306" fill="white" fill-opacity="0.4"/>
<circle cx="69.8143" cy="346.032" r="2.0306" fill="white" fill-opacity="0.4"/>
</svg>
