<svg width="422" height="472" viewBox="0 0 422 472" fill="none" xmlns="http://www.w3.org/2000/svg">
<rect width="422" height="472" fill="#FF782D"/>
<path d="M28.688 50V29.392H31.964V50H28.688ZM41.5286 50V32.136H35.4806V29.392H50.8526V32.136H44.8046V50H41.5286ZM58.0469 50L64.8509 29.392H68.6309L75.4349 50H71.9909L68.6869 38.828C67.9869 36.588 67.3709 34.264 66.7269 31.968H66.6149C65.9989 34.292 65.3829 36.588 64.6829 38.828L61.3509 50H58.0469ZM61.8829 44.148V41.6H71.5149V44.148H61.8829ZM84.0608 50.392C81.2048 50.392 78.6008 49.272 76.7248 47.368L78.6288 45.1C80.0848 46.584 82.1288 47.536 84.1168 47.536C86.5808 47.536 87.9808 46.388 87.9808 44.624C87.9808 42.748 86.5808 42.16 84.6768 41.348L81.8208 40.088C79.8328 39.276 77.6488 37.708 77.6488 34.712C77.6488 31.464 80.4768 29.028 84.3968 29.028C86.8328 29.028 89.1008 30.036 90.6408 31.632L88.9608 33.676C87.6728 32.556 86.2168 31.856 84.3968 31.856C82.2968 31.856 80.9528 32.864 80.9528 34.488C80.9528 36.252 82.6048 36.924 84.2848 37.624L87.1128 38.8C89.5488 39.836 91.3128 41.348 91.3128 44.372C91.3128 47.676 88.5688 50.392 84.0608 50.392ZM100.522 50.392C97.6658 50.392 95.0618 49.272 93.1858 47.368L95.0898 45.1C96.5458 46.584 98.5898 47.536 100.578 47.536C103.042 47.536 104.442 46.388 104.442 44.624C104.442 42.748 103.042 42.16 101.138 41.348L98.2818 40.088C96.2938 39.276 94.1098 37.708 94.1098 34.712C94.1098 31.464 96.9378 29.028 100.858 29.028C103.294 29.028 105.562 30.036 107.102 31.632L105.422 33.676C104.134 32.556 102.678 31.856 100.858 31.856C98.7578 31.856 97.4138 32.864 97.4138 34.488C97.4138 36.252 99.0658 36.924 100.746 37.624L103.574 38.8C106.01 39.836 107.774 41.348 107.774 44.372C107.774 47.676 105.03 50.392 100.522 50.392ZM111.649 50V29.392H123.857V32.136H114.925V37.848H122.457V40.62H114.925V47.256H124.165V50H111.649ZM132.638 50V32.136H126.59V29.392H141.962V32.136H135.914V50H132.638ZM28.688 91V70.392H32.44L36.192 80.836C36.696 82.18 37.116 83.58 37.592 84.98H37.704C38.208 83.58 38.6 82.18 39.048 80.836L42.772 70.392H46.524V91H43.528V80.836C43.528 78.96 43.78 76.328 43.948 74.452H43.836L42.156 79.212L38.572 89.04H36.556L32.972 79.212L31.32 74.452H31.208C31.376 76.328 31.628 78.96 31.628 80.836V91H28.688ZM49.2422 91L56.0462 70.392H59.8262L66.6302 91H63.1862L59.8822 79.828C59.1822 77.588 58.5662 75.264 57.9222 72.968H57.8102C57.1942 75.292 56.5782 77.588 55.8782 79.828L52.5462 91H49.2422ZM53.0782 85.148V82.6H62.7102V85.148H53.0782ZM69.3482 91V70.392H72.6802L79.5402 82.516L81.6962 86.856H81.8362C81.6402 84.756 81.3882 82.236 81.3882 80.024V70.392H84.4962V91H81.1362L74.3322 78.876L72.1762 74.536H72.0362C72.1762 76.692 72.4562 79.044 72.4562 81.312V91H69.3482ZM87.2227 91L94.0267 70.392H97.8067L104.611 91H101.167L97.8627 79.828C97.1627 77.588 96.5467 75.264 95.9027 72.968H95.7907C95.1747 75.292 94.5587 77.588 93.8587 79.828L90.5267 91H87.2227ZM91.0587 85.148V82.6H100.691V85.148H91.0587ZM115.319 91.392C109.831 91.392 105.771 87.528 105.771 80.752C105.771 74.032 109.943 70.028 115.403 70.028C118.315 70.028 120.275 71.316 121.535 72.604L119.771 74.704C118.735 73.668 117.475 72.856 115.515 72.856C111.651 72.856 109.131 75.824 109.131 80.64C109.131 85.54 111.399 88.536 115.655 88.536C116.915 88.536 118.175 88.172 118.875 87.528V82.712H114.815V80.024H121.843V88.956C120.471 90.356 118.119 91.392 115.319 91.392ZM126.524 91V70.392H138.732V73.136H129.8V78.848H137.332V81.62H129.8V88.256H139.04V91H126.524ZM143.313 91V70.392H147.065L150.817 80.836C151.321 82.18 151.741 83.58 152.217 84.98H152.329C152.833 83.58 153.225 82.18 153.673 80.836L157.397 70.392H161.149V91H158.153V80.836C158.153 78.96 158.405 76.328 158.573 74.452H158.461L156.781 79.212L153.197 89.04H151.181L147.597 79.212L145.945 74.452H145.833C146.001 76.328 146.253 78.96 146.253 80.836V91H143.313ZM166.555 91V70.392H178.763V73.136H169.831V78.848H177.363V81.62H169.831V88.256H179.071V91H166.555ZM183.344 91V70.392H186.676L193.536 82.516L195.692 86.856H195.832C195.636 84.756 195.384 82.236 195.384 80.024V70.392H198.492V91H195.132L188.328 78.876L186.172 74.536H186.032C186.172 76.692 186.452 79.044 186.452 81.312V91H183.344ZM208.107 91V73.136H202.059V70.392H217.431V73.136H211.383V91H208.107ZM34.596 132.392C31.74 132.392 29.136 131.272 27.26 129.368L29.164 127.1C30.62 128.584 32.664 129.536 34.652 129.536C37.116 129.536 38.516 128.388 38.516 126.624C38.516 124.748 37.116 124.16 35.212 123.348L32.356 122.088C30.368 121.276 28.184 119.708 28.184 116.712C28.184 113.464 31.012 111.028 34.932 111.028C37.368 111.028 39.636 112.036 41.176 113.632L39.496 115.676C38.208 114.556 36.752 113.856 34.932 113.856C32.832 113.856 31.488 114.864 31.488 116.488C31.488 118.252 33.14 118.924 34.82 119.624L37.648 120.8C40.084 121.836 41.848 123.348 41.848 126.372C41.848 129.676 39.104 132.392 34.596 132.392ZM48.5649 132V124.216L42.3489 111.392H45.8209L48.2289 116.88C48.8729 118.392 49.4609 119.848 50.1329 121.416H50.2449C50.9449 119.848 51.5889 118.392 52.2329 116.88L54.6129 111.392H58.0009L51.8129 124.216V132H48.5649ZM65.9046 132.392C63.0486 132.392 60.4446 131.272 58.5686 129.368L60.4726 127.1C61.9286 128.584 63.9726 129.536 65.9606 129.536C68.4246 129.536 69.8246 128.388 69.8246 126.624C69.8246 124.748 68.4246 124.16 66.5206 123.348L63.6646 122.088C61.6766 121.276 59.4926 119.708 59.4926 116.712C59.4926 113.464 62.3206 111.028 66.2406 111.028C68.6766 111.028 70.9446 112.036 72.4846 113.632L70.8046 115.676C69.5166 114.556 68.0606 113.856 66.2406 113.856C64.1406 113.856 62.7966 114.864 62.7966 116.488C62.7966 118.252 64.4486 118.924 66.1286 119.624L68.9566 120.8C71.3926 121.836 73.1566 123.348 73.1566 126.372C73.1566 129.676 70.4126 132.392 65.9046 132.392ZM80.4661 132V114.136H74.4181V111.392H89.7901V114.136H83.7421V132H80.4661ZM93.3833 132V111.392H105.591V114.136H96.6593V119.848H104.191V122.62H96.6593V129.256H105.899V132H93.3833ZM110.172 132V111.392H113.924L117.676 121.836C118.18 123.18 118.6 124.58 119.076 125.98H119.188C119.692 124.58 120.084 123.18 120.532 121.836L124.256 111.392H128.008V132H125.012V121.836C125.012 119.96 125.264 117.328 125.432 115.452H125.32L123.64 120.212L120.056 130.04H118.04L114.456 120.212L112.804 115.452H112.692C112.86 117.328 113.112 119.96 113.112 121.836V132H110.172Z" fill="white" fill-opacity="0.9"/>
<rect x="246.761" y="288.511" width="45.7796" height="150.812" rx="5" fill="#D7D7D7"/>
<rect x="149.491" y="243" width="240.318" height="150.812" rx="5" fill="white"/>
<rect x="214.903" y="425.938" width="109.494" height="16.0628" rx="5" fill="#414141"/>
<rect x="165.431" y="264.417" width="102.747" height="113.455" rx="6" fill="#D7D7D7"/>
<rect x="285.133" y="288.511" width="74.9596" height="5.35426" rx="2.67713" fill="#6B6B6B"/>
<rect x="285.133" y="302.789" width="74.9596" height="5.35426" rx="2.67713" fill="#6B6B6B"/>
<rect x="285.133" y="317.067" width="51.8951" height="5.35426" rx="2.67713" fill="#6B6B6B"/>
<circle cx="365.5" cy="264.5" r="7.5" fill="#598ADE"/>
<rect x="185" y="321" width="18" height="57" fill="white"/>
<rect x="209" y="334" width="18" height="44" fill="#598ADE"/>
<rect x="233" y="303" width="18" height="75" fill="#5FC689"/>
<rect x="109" y="188" width="68" height="46" rx="5" fill="#FF9255"/>
<g opacity="0.9">
<path d="M137.22 202.792L138.922 201.604C139.27 201.361 139.531 201.014 139.669 200.613L140.284 198.819C140.561 198.011 141.321 197.468 142.176 197.468H143.686C144.541 197.468 145.301 198.011 145.578 198.819L146.168 200.538C146.321 200.985 146.627 201.363 147.032 201.606L149.151 202.873C149.616 203.152 150.174 203.229 150.698 203.088L152.046 202.725C152.931 202.486 153.865 202.879 154.312 203.679L155.25 205.356C155.66 206.089 155.569 206.999 155.022 207.636L154.034 208.786C153.722 209.148 153.551 209.611 153.551 210.089V212.389C153.551 212.794 153.674 213.189 153.903 213.522L155.151 215.338C155.622 216.023 155.621 216.927 155.148 217.61L153.842 219.497C153.368 220.181 152.521 220.5 151.713 220.299L150.727 220.053C150.186 219.918 149.614 220.015 149.147 220.321L147.065 221.685C146.641 221.963 146.338 222.392 146.218 222.886L145.982 223.857C145.764 224.754 144.961 225.385 144.039 225.385H142.108C141.287 225.385 140.549 224.883 140.248 224.12L139.661 222.635C139.528 222.297 139.305 222.002 139.016 221.781L137.171 220.37C136.73 220.033 136.169 219.894 135.622 219.987L133.246 220.39C132.392 220.535 131.543 220.115 131.14 219.348L130.24 217.635C129.87 216.931 129.953 216.074 130.451 215.454L131.971 213.559C132.255 213.204 132.41 212.763 132.41 212.308V210.178C132.41 209.646 132.199 209.137 131.823 208.762L130.782 207.724C130.112 207.055 130.002 206.008 130.52 205.215L131.637 203.503C132.101 202.794 132.961 202.453 133.785 202.653L135.602 203.096C136.16 203.231 136.749 203.121 137.22 202.792Z" fill="white"/>
<circle cx="142.782" cy="211.542" r="5.76792" fill="#FF9255"/>
</g>
<path fill-rule="evenodd" clip-rule="evenodd" d="M40.9945 343.115C38.7854 343.118 36.997 344.912 37 347.121L37.0453 380.008C37.0484 382.217 38.8417 384.005 41.0508 384.002L119.15 383.887C121.359 383.884 123.147 382.091 123.144 379.881L123.136 373.953L131.865 373.941C133.622 373.938 134.523 371.833 133.311 370.561L123.117 359.86L123.099 346.994C123.096 344.785 121.303 342.997 119.094 343L40.9945 343.115Z" fill="#FC6410"/>
<circle cx="66.0321" cy="363.032" r="2.0306" fill="white" fill-opacity="0.4"/>
<circle cx="80.9232" cy="363.032" r="2.0306" fill="white" fill-opacity="0.4"/>
<circle cx="95.8143" cy="363.032" r="2.0306" fill="white" fill-opacity="0.4"/>
</svg>
